<svg height="92" width="80"
     viewBox="0 0 80 92" xmlns="http://www.w3.org/2000/svg">
  <title>Yale Center for British Art</title>
  <g fill="#000" fill-rule="evenodd">
    <path d="M8.492 0L5.716 3.846 2.905 0H-.001l4.552 5.822v3.689h2.242V5.837L11.251 0z"/>
    <path d="M17.451 0l-4.828 9.511h2.546l1.088-2.295h4.511l1.075 2.295h2.681L19.628.001h-2.177zm1.088 2.441l1.393 2.998h-2.826l1.433-2.998z"/>
    <path d="M29.13 0v9.511h7.829V7.413h-5.574V0z"/>
    <path d="M41.739 0v9.511h8.121V7.39h-5.866V5.494h5.044V3.726h-5.044V2.04h5.721V0z"/>
    <path d="M10.244 30.04c-.742.93-2.334 1.671-4.351 1.671-3.211 0-5.757-1.79-5.757-4.96 0-2.857 2.056-4.925 6.008-4.925 2.058 0 3.596.758 4.154 1.527l-1.42 1.725c-.65-.795-1.604-1.17-2.985-1.17-2.162 0-3.436 1.13-3.436 2.842 0 1.684 1.328 2.826 3.436 2.826 1.288 0 2.309-.29 2.933-1.156l1.418 1.62z"/>
    <path d="M15.33 31.498v-9.512h7.975v2.041h-5.721v1.686h5.042v1.767h-5.042v1.897h5.865v2.121z"/>
    <path d="M35.884 31.498l-5.133-5.799v5.799h-2.217v-9.512h2.27l5.056 6.129v-6.129h2.202v9.512z"/>
    <path d="M46.157 31.498v-7.455h-3.423v-2.057h9.115v2.057h-3.423v7.455z"/>
    <path d="M56.563 31.498v-9.512h7.975v2.041h-5.719v1.686h5.042v1.767h-5.042v1.897h5.865v2.121z"/>
    <path d="M72.026 24.043v2.4h2.867c.69 0 1.472-.199 1.472-1.234 0-.955-.782-1.166-1.472-1.166h-2.867zm4.896 7.455l-2.174-3.184h-2.722v3.184H69.77v-9.512h5.294c2.693 0 3.529 1.393 3.529 3.157 0 1.259-.65 2.244-1.778 2.629l2.827 3.726h-2.721z"/>
    <g>
      <path d="M2.257 47.825v3.62H0v-9.511h7.923v2.056H2.257v1.939h5.002v1.896z"/>
      <path d="M18.128 43.898c-1.937 0-3.423 1.101-3.423 2.92 0 1.818 1.514 2.77 3.423 2.77 1.965 0 3.424-.952 3.424-2.77s-1.434-2.92-3.424-2.92m0 7.774c-3.21 0-5.718-1.897-5.718-4.854 0-2.961 2.282-5.043 5.718-5.043 3.357 0 5.772 2.082 5.772 5.043 0 2.957-2.415 4.855-5.772 4.855"/>
      <path d="M31.267 43.99v2.401h2.866c.69 0 1.472-.199 1.472-1.234 0-.955-.782-1.167-1.472-1.167h-2.866zm4.896 7.455l-2.176-3.184h-2.72v3.184H29.01v-9.51h5.294c2.695 0 3.53 1.392 3.53 3.156 0 1.26-.65 2.244-1.778 2.628l2.827 3.726h-2.72z"/>
    </g>
    <g>
      <path d="M2.256 67.27v2.04H5.2c.983 0 1.488-.313 1.488-.993 0-.662-.493-1.047-1.301-1.047H2.256zm0-3.318v1.777h2.628c.888 0 1.166-.436 1.166-.94 0-.505-.278-.837-1.193-.837H2.256zM0 71.407v-9.51h4.433c2.32 0 3.82.81 3.82 2.666 0 .848-.412 1.42-.93 1.672.785.24 1.567.94 1.567 2.215 0 1.976-1.42 2.957-3.661 2.957h-5.23z"/>
      <path d="M16.126 63.951v2.402h2.866c.69 0 1.473-.199 1.473-1.234 0-.955-.783-1.168-1.473-1.168h-2.866zm4.896 7.455l-2.176-3.184h-2.72v3.184H13.87v-9.51h5.294c2.693 0 3.529 1.393 3.529 3.157 0 1.26-.649 2.244-1.778 2.628l2.827 3.725h-2.72z"/>
      <path d="M28.4 71.407h2.256v-9.51H28.4z"/>
      <path d="M38.85 71.406v-7.455h-3.422v-2.055h9.115v2.055h-3.422v7.455z"/>
      <path d="M49.309 71.407h2.256v-9.51h-2.256z"/>
      <path d="M63.46 64.668c-.716-.637-1.724-.943-2.665-.943-.492 0-1.673.054-1.673.783 0 1.619 5.93.558 5.93 4.221 0 2.335-2.308 2.906-4.164 2.906-1.592 0-3.44-.451-4.406-1.819l1.63-1.513c.626.97 1.78 1.328 2.894 1.328.678 0 1.818-.039 1.818-.861 0-1.579-5.983-.731-5.983-4.075 0-2.242 2.215-2.959 3.979-2.959 1.34 0 2.814.225 3.9 1.086l-1.26 1.846z"/>
      <path d="M76.984 71.406v-3.818h-4.657v3.818h-2.256v-9.51h2.256v3.514h4.657v-3.514h2.256v9.51z"/>
    </g>
    <g>
      <path d="M5.916 84.14l-1.433 2.999h2.828l-1.395-3zm3.304 7.07l-1.075-2.295h-4.51L2.547 91.21H0l4.828-9.51h2.177l4.895 9.51H9.22z"/>
      <path d="M18.764 83.755v2.4h2.866c.69 0 1.472-.198 1.472-1.233 0-.955-.782-1.167-1.472-1.167h-2.866zm4.896 7.455l-2.175-3.184h-2.721v3.184h-2.256v-9.511h5.294c2.693 0 3.53 1.393 3.53 3.157 0 1.259-.65 2.244-1.78 2.628l2.828 3.726h-2.72z"/>
      <path d="M33.296 91.21v-7.455h-3.422v-2.056h9.113v2.056h-3.421v7.455z"/>
    </g>
  </g>
</svg>
