<svg viewBox="0 0 611 18" xmlns="http://www.w3.org/2000/svg" height="17" width="506">
  <title>Yale Center for British Art</title>
  <g fill="#000" fill-rule="evenodd">
    <path d="M15.526 1.286l-5.071 6.759-5.141-6.759H0l8.322 10.231V18h4.099v-6.458l8.15-10.256z"/>
    <path d="M32.01 1.286h3.998L45 18h-4.924l-1.973-4.034h-8.285L27.821 18h-4.678L32.01 1.286zm1.998 4.287l-2.63 5.27h5.19l-2.56-5.27z"/>
    <path d="M52.714 1.286V18h12.857v-3.684h-9.152V1.286z"/>
    <path d="M75.857 1.286V18h15.429v-3.728H80.142v-3.333h9.58V7.834h-9.58v-2.96h10.867V1.286z"/>
    <path d="M131.644 14.973c-1.35 1.67-4.243 3.002-7.91 3.002-5.834 0-10.464-3.216-10.464-8.911 0-5.128 3.738-8.843 10.923-8.843 3.738 0 6.535 1.361 7.548 2.742l-2.58 3.1c-1.18-1.43-2.917-2.101-5.427-2.101-3.929 0-6.246 2.027-6.246 5.102 0 3.027 2.414 5.078 6.246 5.078 2.341 0 4.197-.525 5.33-2.077l2.58 2.908z"/>
    <path d="M140.884 17.593V.51h14.495v3.667h-10.394v3.027h9.164v3.172h-9.164v3.408h10.659v3.809z"/>
    <path d="M178.248 17.593l-9.332-10.415v10.415h-4.028V.51h4.125l9.188 11.007V.51h4.004v17.083z"/>
    <path d="M196.917 17.593V4.201h-6.22V.51h16.566v3.691h-6.221v13.392z"/>
    <path d="M215.832 17.593V.51h14.495v3.667h-10.395v3.027h9.164v3.172h-9.164v3.408h10.66v3.809z"/>
    <path d="M252.836 17.594l-3.954-5.72h-4.944v5.72h-4.1V.51h9.621c4.897 0 6.417 2.501 6.417 5.67 0 2.261-1.182 4.03-3.233 4.72l5.138 6.694h-4.945zM243.938 4.2v4.315h5.21c1.253 0 2.675-.359 2.675-2.218 0-1.715-1.422-2.097-2.675-2.097h-5.21z"/>
    <g>
      <path d="M284.232 11.09v6.503h-4.1V.51h14.399v3.691h-10.299v3.482h9.092v3.407z"/>
      <path d="M313.08 18c-5.834 0-10.391-3.408-10.391-8.72 0-5.319 4.146-9.059 10.391-9.059 6.102 0 10.493 3.74 10.493 9.06 0 5.311-4.39 8.719-10.493 8.719zm0-13.965c-3.52 0-6.22 1.978-6.22 5.245 0 3.265 2.75 4.98 6.22 4.98 3.57 0 6.224-1.715 6.224-4.98 0-3.267-2.606-5.245-6.224-5.245z"/>
      <path d="M345.858 17.594l-3.953-5.72h-4.945v5.72h-4.1V.51h9.622c4.898 0 6.416 2.501 6.416 5.67 0 2.261-1.181 4.03-3.232 4.72l5.137 6.694h-4.945zM336.96 4.2v4.315h5.21c1.254 0 2.676-.359 2.676-2.218 0-1.715-1.422-2.097-2.676-2.097h-5.21z"/>
    </g>
    <g>
      <path d="M373.155 17.593V.51h8.056c4.219 0 6.944 1.454 6.944 4.79 0 1.522-.749 2.55-1.687 3 1.421.43 2.844 1.694 2.844 3.98 0 3.55-2.58 5.313-6.655 5.313h-9.502zm4.099-7.432v3.667h5.354c1.785 0 2.703-.567 2.703-1.787 0-1.19-.895-1.88-2.363-1.88h-5.694zm0-5.96v3.193h4.777c1.615 0 2.12-.784 2.12-1.69 0-.906-.505-1.503-2.17-1.503h-4.727z"/>
      <path d="M411.362 17.594l-3.953-5.72h-4.945v5.72h-4.1V.51h9.621c4.897 0 6.418 2.501 6.418 5.67 0 2.261-1.183 4.03-3.234 4.72l5.138 6.694h-4.945zM402.464 4.2v4.315h5.21c1.253 0 2.675-.359 2.675-2.218 0-1.715-1.422-2.097-2.675-2.097h-5.21z"/>
      <path d="M424.774 17.594h4.1V.51h-4.1z"/>
      <path d="M443.769 17.593V4.201h-6.22V.51h16.565v3.691h-6.221v13.392z"/>
      <path d="M462.777 17.594h4.1V.51h-4.1z"/>
      <path d="M488.5 5.49c-1.303-1.146-3.133-1.696-4.846-1.696-.895 0-3.04.1-3.04 1.406 0 2.91 10.78 1.005 10.78 7.58 0 4.197-4.197 5.22-7.571 5.22-2.894 0-6.249-.808-8.008-3.266l2.966-2.718c1.135 1.744 3.233 2.385 5.257 2.385 1.231 0 3.305-.069 3.305-1.547 0-2.835-10.876-1.313-10.876-7.316 0-4.03 4.026-5.317 7.235-5.317 2.435 0 5.112.407 7.089 1.954l-2.29 3.314z"/>
      <path d="M513.08 17.593v-6.86h-8.465v6.86h-4.1V.51h4.1v6.312h8.465V.51h4.1v17.083z"/>
    </g>
    <g>
      <path d="M556.292 17.593l-1.952-4.122h-8.2l-1.976 4.122h-4.63L548.31.51h3.957l8.898 17.083h-4.873zm-6.004-12.7l-2.604 5.386h5.138l-2.534-5.387z"/>
      <path d="M582.537 17.594l-3.952-5.72h-4.946v5.72h-4.1V.51h9.622c4.896 0 6.416 2.501 6.416 5.67 0 2.261-1.182 4.03-3.232 4.72l5.138 6.694h-4.946zM573.64 4.2v4.315h5.21c1.253 0 2.675-.359 2.675-2.218 0-1.715-1.422-2.097-2.675-2.097h-5.21z"/>
      <path d="M600.053 17.593V4.201h-6.221V.51h16.566v3.691h-6.221v13.392z"/>
    </g>
  </g>
</svg>
