
<svg viewBox="0 0 200 100" xmlns="http://www.w3.org/2000/svg">
  <title>Yale</title>

  <g fill="#0a355f">
    <path d="M169.41 86.89c-11.598 0-20.547-9.169-20.547-21.984 0-15.686 9.612-26.402 23.2-26.402 10.935 0 17.011 6.187 17.011 16.019v1.988l-29.826-.221c-.221 1.215-.332 3.204-.332 5.634 0 11.267 7.07 18.669 16.461 18.669 5.633 0 8.506-1.988 12.924-5.744l1.657 2.54c-6.297 5.745-11.489 9.501-20.548 9.501zm.995-44.96c-5.524 0-9.389 4.418-10.716 11.377l19.444-.221c0-5.854-3.647-11.156-8.728-11.156z"/>
    <path d="M118.375 86.006v-2.541c4.971-.331 6.406-1.436 7.291-3.315V22.928c0-3.756-.553-5.302-8.175-5.965v-2.209l20.216-5.082.662 1.879-3.203 3.976V80.15c1.105 2.21 3.203 2.984 7.732 3.315v2.541h-24.523z"/>
    <path d="M106.775 87c-5.964 0-8.837-4.088-9.058-6.959C93.961 84.018 89.101 87 84.461 87c-5.965 0-11.047-3.645-11.047-9.941 0-3.094.774-6.298 2.32-8.838l21.983-7.954v-8.175c0-4.971-2.32-9.721-7.291-9.721-2.982 0-5.855 3.645-6.075 9.279l-9.943 1.657v-1.104c3.314-9.943 14.251-13.808 19.553-13.808 10.053 0 13.698 5.301 13.588 13.476l-.331 23.198c-.111 4.53 2.319 5.634 4.529 5.634 1.767 0 3.534-1.104 5.634-3.203v3.203C114.95 83.576 110.643 87 106.775 87zM84.682 68.994c-.442 1.767-.773 3.314-.773 5.744 0 3.314 1.878 6.627 5.523 6.627 3.314 0 5.192-1.103 8.175-3.424l.11-14.914c-2.872 1.326-9.942 4.42-13.035 5.967z"/>
    <path d="M70.542 25.911l-18.227 30.71v20.658c2.099 4.971 7.401 5.633 12.483 5.855v2.872H29.117v-2.872c5.081-.222 11.268-.994 12.925-4.308V57.505L23.483 26.132C20.28 20.829 17.187 19.063 11 18.62v-2.872h31.042v2.872c-5.855.331-7.733 1.437-9.39 2.763l17.233 29.825 16.901-29.716c-1.767-1.325-4.087-2.541-9.942-2.872v-2.872h26.512v2.872c-5.965.222-9.721 2.209-12.814 7.291z"/>
  </g>
</svg>
